<?xml version="1.0" encoding="UTF-8"?>
<!DOCTYPE svg PUBLIC "-//W3C//DTD SVG 1.1//EN" "http://www.w3.org/Graphics/SVG/1.1/DTD/svg11.dtd">
<!-- Creator: CorelDRAW 2020 -->
<svg xmlns="http://www.w3.org/2000/svg" xml:space="preserve" width="256px" height="256px" version="1.1" style="shape-rendering:geometricPrecision; text-rendering:geometricPrecision; image-rendering:optimizeQuality; fill-rule:evenodd; clip-rule:evenodd"
viewBox="0 0 256 256"
 xmlns:xlink="http://www.w3.org/1999/xlink"
 xmlns:xodm="http://www.corel.com/coreldraw/odm/2003">
 <defs>
  <style type="text/css">
   <![CDATA[
    .fil2 {fill:url(#id0)}
    .fil3 {fill:url(#id1)}
    .fil1 {fill:url(#id2)}
    .fil0 {fill:url(#id3)}
   ]]>
  </style>
  <linearGradient id="id0" gradientUnits="userSpaceOnUse" x1="218.188" y1="69.291" x2="39.296" y2="182.462">
   <stop offset="0" style="stop-opacity:1; stop-color:#000066"/>
   <stop offset="0.458824" style="stop-opacity:1; stop-color:#0066B2"/>
   <stop offset="1" style="stop-opacity:1; stop-color:#00CCFF"/>
  </linearGradient>
  <linearGradient id="id1" gradientUnits="userSpaceOnUse" xlink:href="#id0" x1="218.187" y1="69.292" x2="39.296" y2="182.462">
  </linearGradient>
  <linearGradient id="id2" gradientUnits="userSpaceOnUse" xlink:href="#id0" x1="218.188" y1="69.292" x2="39.295" y2="182.462">
  </linearGradient>
  <linearGradient id="id3" gradientUnits="userSpaceOnUse" xlink:href="#id0" x1="218.188" y1="69.291" x2="39.296" y2="182.462">
  </linearGradient>
 </defs>
 <g id="Layer_x0020_1">
  <metadata id="CorelCorpID_0Corel-Layer"/>
  <g id="_649877616">
   <path class="fil0" d="M39.296 182.462c11.885,-11.319 19.555,-31.561 26.194,-46.605l19.162 1.094c-4.231,9.574 -24.254,48.008 -45.356,45.511z"/>
   <path class="fil1" d="M67.261 130.869c9.092,-13.774 55.54,-7.526 72.672,-10.16 -7.869,12.355 -58.411,10.142 -72.672,10.16z"/>
   <path class="fil2" d="M70.003 124.123c30.107,-14.599 17.932,-2.233 36.058,-33.765l12.604 26.466 19.754 -0.347 -21.699 -46.023 -21.234 0.02c-8.452,17.879 -17.031,35.769 -25.483,53.649z"/>
   <path class="fil3" d="M141.96 125.786l12.299 29.3c10.918,-21.945 31.797,-91.118 63.928,-85.795 -20.065,26.584 -41.402,81.629 -56.54,112.846l-14.46 0.137c-6.817,-23.309 -23.795,-31.426 -5.227,-56.488z"/>
  </g>
 </g>
</svg>
